# xmcd
#
# Track frame offsets:
#	150
#	14919
#	27817
#	44454
#	60687
#	80246
#	98792
#	113604
#	139149
#	159020
#	175126
#	188423
#	205301
#
# Disc length: 2932 seconds
#
# Revision: 0
# Processed by: cddbd v1.5.1PL0 Copyright (c) Steve Scherf et al.
# Submitted via: EasyCDDAExtractor 8.0.1.1
#
DISCID=a80b720d
DTITLE=Brooks and Dunn - Hillbilly Deluxe
DYEAR=2005
DGENRE=Country
TTITLE0=Play Something Country
TTITLE1=She's About As Lonely As I'm Going to Let Her Get
TTITLE2=My Heart's Not a Hotel
TTITLE3=Whisky Do My Talkin'
TTITLE4=Hillbilly Deluxe
TTITLE5=One More Roll of the Dice
TTITLE6=Just Another Neon Night
TTITLE7=Believe
TTITLE8=Building Bridges (Guest Vocals by Sheryl Crow and Vince Gill)
TTITLE9=Her West Was Wilder
TTITLE10=I May Never Get Over You
TTITLE11=She Likes to Get Out of Town
TTITLE12=Again
EXTD=
EXTT0=
EXTT1=
EXTT2=
EXTT3=
EXTT4=
EXTT5=
EXTT6=
EXTT7=
EXTT8=
EXTT9=
EXTT10=
EXTT11=
EXTT12=
PLAYORDER=
